<svg xmlns="http://www.w3.org/2000/svg" viewBox="0 0 24 24" fill="#667eea">
  <path d="M12 15.5A3.5 3.5 0 0 1 8.5 12A3.5 3.5 0 0 1 12 8.5a3.5 3.5 0 0 1 3.5 3.5a3.5 3.5 0 0 1-3.5 3.5m1.5-8.92l1.96-.39c.16-.03.31.06.39.19l.96 1.66c.07.13.05.29-.05.39l-1.58 1.58l.1.81l1.58 1.58c.11.11.13.28.05.4l-.96 1.66c-.08.13-.23.21-.39.18l-1.96-.39c-.22.16-.47.29-.72.42l-.59 1.91c-.05.15-.18.25-.34.25h-1.92c-.16 0-.29-.1-.34-.25l-.59-1.91c-.25-.11-.5-.26-.72-.41l-1.96.39c-.16.03-.31-.06-.39-.19l-.96-1.66c-.07-.13-.05-.29.05-.39l1.58-1.58l-.1-.81l-1.58-1.58c-.1-.11-.12-.27-.05-.4l.96-1.65c.08-.14.23-.22.39-.19l1.96.39c.23-.16.47-.3.72-.42l.59-1.91c.05-.15.18-.25.34-.25h1.92c.16 0 .29.1.34.25l.59 1.91c.26.13.5.26.72.42z"/>
</svg>